<?xml version="1.0" encoding="UTF-8"?>
<svg version="1.1" xmlns="http://www.w3.org/2000/svg" width="4081" height="4081">
<path d="M0 0 C1.2380101 -0.00247617 1.2380101 -0.00247617 2.5010305 -0.00500236 C5.28414424 -0.00933792 8.06720533 -0.00652271 10.85032046 -0.00377727 C12.86742486 -0.0054264 14.88452894 -0.00751244 16.90163249 -0.00999737 C22.47899357 -0.01558031 28.05633934 -0.01488863 33.63370232 -0.01321978 C39.68856776 -0.0124906 45.74342881 -0.0175071 51.7982924 -0.0217948 C62.42190912 -0.02850272 73.04552116 -0.0314729 83.6691395 -0.03192973 C95.07105885 -0.03243184 106.47297465 -0.03507591 117.87489283 -0.04033732 C118.59447916 -0.04066746 119.31406548 -0.04099759 120.05545746 -0.04133773 C122.98613757 -0.0426877 125.91681767 -0.04405037 128.84749776 -0.04542983 C163.56091984 -0.06174035 198.27434124 -0.06811956 232.9877665 -0.0728777 C250.27190341 -0.07526023 267.55603992 -0.07896358 284.84017653 -0.0829148 C340.27454779 -0.09558028 395.70891903 -0.10636385 451.14329171 -0.10975526 C453.79330281 -0.1099175 456.4433139 -0.11008306 459.09332499 -0.11024964 C464.4080231 -0.11058344 469.72272121 -0.11091392 475.03741932 -0.1112442 C481.25972721 -0.1116311 487.48203511 -0.11202071 493.704343 -0.11241527 C495.48522279 -0.11252769 497.26610257 -0.1126391 499.04698236 -0.11274952 C556.23937605 -0.11629875 613.43175717 -0.13137575 670.62414606 -0.15468726 C711.71533129 -0.17142917 752.80651414 -0.18690411 793.89770281 -0.19142222 C795.16534524 -0.19156245 795.16534524 -0.19156245 796.45859661 -0.19170551 C815.01083808 -0.19372459 833.56307951 -0.19488061 852.11532109 -0.1952341 C858.75381701 -0.19537027 865.39231294 -0.19557927 872.03080886 -0.19582735 C873.68231506 -0.19588891 875.33382126 -0.19594723 876.98532746 -0.1960023 C903.30007002 -0.19692207 929.61479946 -0.2068898 955.9295377 -0.22145979 C982.43722019 -0.23607786 1008.9448866 -0.24111635 1035.45257242 -0.23304025 C1039.11691307 -0.23192489 1042.78125374 -0.23091422 1046.44559443 -0.22996593 C1047.16389587 -0.22977596 1047.8821973 -0.22958599 1048.62226545 -0.22939027 C1059.98847512 -0.22665834 1071.35465501 -0.23399306 1082.72085821 -0.24553929 C1093.90195164 -0.25668752 1105.08300348 -0.25685352 1116.26410115 -0.24616911 C1122.24336874 -0.24076472 1128.22253293 -0.24010684 1134.20179205 -0.25267783 C1139.64478787 -0.26402595 1145.08759626 -0.2614821 1150.53058562 -0.24801075 C1152.48407775 -0.24558162 1154.43758435 -0.24814352 1156.39106051 -0.25640723 C1185.42626955 -0.37112709 1212.40101894 8.20403424 1234.81724894 27.1276505 C1235.80982707 27.95780675 1236.80240519 28.787963 1237.82506144 29.6432755 C1268.16901309 55.79918015 1276.11839582 90.98510247 1280.3785616 129.16501608 C1280.82465814 133.14204423 1281.2827524 137.11769422 1281.73926604 141.09353757 C1282.53815661 148.06541227 1283.32956391 155.03810424 1284.11602175 162.01139188 C1285.29011087 172.42114732 1286.47617642 182.82951447 1287.66466501 193.23763452 C1289.68036227 210.89264981 1291.68679974 228.5487059 1293.6881901 246.20534825 C1296.60376684 271.92611905 1299.53272353 297.64535622 1302.46426545 323.36431164 C1303.65783548 333.83617495 1304.85100929 344.30808342 1306.04416239 354.77999425 C1306.17713682 355.94703199 1306.31011124 357.11406974 1306.44711519 358.31647226 C1308.50813566 376.40533075 1310.56687765 394.49444771 1312.62439311 412.58370519 C1320.37230474 480.69939418 1328.14710221 548.81196881 1335.94342756 616.92213327 C1336.36819141 620.63296523 1336.79294078 624.34379884 1337.2176863 628.0546329 C1339.7714307 650.36558328 1342.32546453 672.67650051 1344.87990916 694.98737073 C1348.88689496 729.98511175 1352.8920853 764.98305786 1356.89586222 799.98116612 C1357.03755516 801.21974109 1357.1792481 802.45831606 1357.32523477 803.73442361 C1359.0329332 818.66191707 1360.7405548 833.58941931 1362.44814906 848.51692469 C1363.85543252 860.81912346 1365.26280139 873.12131246 1366.67017227 885.42350124 C1373.88855401 948.52134025 1381.10550097 1011.61934327 1388.32115519 1074.71749425 C1388.43489566 1075.71211014 1388.54863613 1076.70672603 1388.66582328 1077.73148179 C1392.56614505 1111.83828036 1396.46634003 1145.94509343 1400.36647379 1180.0519135 C1403.36168491 1206.24513928 1406.35695889 1232.43835787 1409.35240519 1258.63155675 C1409.45757277 1259.5511779 1409.56274036 1260.47079906 1409.67109483 1261.41828752 C1420.94360285 1359.98869037 1432.22374559 1458.55821959 1443.50474894 1557.1276505 C1443.62222176 1558.15408691 1443.73969459 1559.18052333 1443.86072719 1560.23806387 C1448.07740868 1597.08192672 1452.29420256 1633.92577671 1456.51120341 1670.76960301 C1456.5968732 1671.51809774 1456.68254298 1672.26659246 1456.77080882 1673.03776885 C1458.45292992 1687.734399 1460.13509093 1702.43102458 1461.81724894 1717.1276505 C1465.54709858 1658.40834946 1469.23163192 1599.68644635 1472.83453715 1540.95922399 C1472.89945349 1539.90113681 1472.89945349 1539.90113681 1472.96568127 1538.82167413 C1474.06772813 1520.85843134 1475.1680648 1502.89508392 1476.26776411 1484.93169728 C1477.01474553 1472.7299392 1477.76223439 1460.5282123 1478.5101372 1448.32651067 C1478.58698957 1447.07269707 1478.58698957 1447.07269707 1478.66539452 1445.7935539 C1478.92688298 1441.52753065 1479.18838054 1437.26150797 1479.44988291 1432.99548558 C1479.9844719 1424.27443859 1480.51900919 1415.55338844 1481.05353165 1406.83233738 C1481.10723489 1405.95614012 1481.16093813 1405.07994287 1481.21626874 1404.17719418 C1482.04431684 1390.66700934 1482.87213127 1377.1568102 1483.69980073 1363.64660215 C1483.78300658 1362.28842112 1483.78300658 1362.28842112 1483.86789335 1360.90280208 C1484.09299416 1357.22844375 1484.31809411 1353.55408537 1484.54319362 1349.87972696 C1487.37885422 1303.59257683 1490.21674571 1257.30556369 1493.05547798 1211.01860184 C1493.59093778 1202.28764763 1494.12637823 1193.55669223 1494.6618207 1184.82573695 C1494.9613751 1179.94118781 1495.26093044 1175.05663873 1495.5604859 1170.17208966 C1495.61996189 1169.20227415 1495.67943789 1168.23245865 1495.74071619 1167.2332548 C1496.10224062 1161.33824196 1496.46376709 1155.44322925 1496.82529494 1149.54821662 C1499.52957917 1105.45259812 1502.23362825 1061.35696521 1504.93735217 1017.26131236 C1505.12418265 1014.21425457 1505.31101429 1011.16719685 1505.49784602 1008.12013914 C1508.38257003 961.0727426 1511.26655018 914.02530058 1514.14873087 866.97774816 C1514.24210459 865.45355595 1514.24210459 865.45355595 1514.33736465 863.89857198 C1515.34165758 847.50488514 1516.34590795 831.11119569 1517.35015012 814.71750573 C1520.2440215 767.47668454 1523.13845621 720.23589809 1526.03611624 672.99530911 C1526.09567776 672.02427223 1526.15523928 671.05323534 1526.2166057 670.05277309 C1527.46514577 649.69783736 1528.71388961 629.34291414 1529.96289546 608.98800699 C1530.54755937 599.45979795 1531.13217961 589.93158622 1531.71677554 580.403373 C1531.774318 579.46551319 1531.83186047 578.52765338 1531.89114665 577.56137357 C1533.74161639 547.40101615 1535.5889807 517.24046951 1537.43466646 487.07981898 C1539.28972945 456.76610931 1541.14771011 426.45258003 1543.00978955 396.13930051 C1543.26701162 391.95189901 1543.52419927 387.7644954 1543.78136599 383.5770905 C1543.83177407 382.75632328 1543.88218214 381.93555606 1543.93411774 381.08991711 C1544.73158089 368.1038112 1545.52583759 355.11751125 1546.31874856 342.13112667 C1547.09859702 329.35975849 1547.88184661 316.58860265 1548.66869671 303.81766389 C1549.08926673 296.99009681 1549.50822816 290.1624408 1549.92302874 283.33452047 C1550.30056945 277.12040362 1550.68252204 270.90657403 1551.06794871 264.69294146 C1551.20550421 262.46296744 1551.34147288 260.23289481 1551.47562883 258.00271369 C1553.09971979 231.03906315 1554.56352948 209.27294933 1575.11021769 189.42061925 C1585.57793832 180.55402183 1597.05990945 177.13144981 1610.35350382 175.19689488 C1612.03520308 174.94237605 1612.03520308 174.94237605 1613.75087607 174.68271542 C1617.46002333 174.12348666 1621.17078831 173.57590333 1624.88170207 173.02852941 C1627.52948248 172.6321112 1630.17716849 172.23510114 1632.82476389 171.83745313 C1640.4711927 170.69106807 1648.11980937 169.55970122 1655.76877034 168.43035638 C1659.05174483 167.94522772 1662.33443408 167.45817803 1665.61714518 166.9712708 C1682.1800249 164.51581435 1698.74632772 162.08407817 1715.31390828 159.66059825 C1722.75532991 158.57200568 1730.19643455 157.48125273 1737.63753308 156.39045411 C1751.2195795 154.39949224 1764.80184112 152.41000258 1778.38423502 150.42141271 C1797.81494321 147.57654944 1817.24529869 144.72928213 1836.67557268 141.88145503 C1843.53162853 140.87659031 1850.38768983 139.87176274 1857.24375012 138.86692826 C1858.95465284 138.6161751 1860.66555538 138.36542067 1862.37645773 138.11466499 C1874.32273821 136.3637781 1886.26905517 134.61314032 1898.21540261 132.86271037 C1950.96727908 125.13326152 2003.71752031 117.39274116 2056.46600306 109.64016271 C2062.54922916 108.7461 2068.63247157 107.85214837 2074.71571696 106.95821691 C2098.55778291 103.45460896 2122.39976527 99.95043255 2146.24170363 96.44595647 C2165.54486431 93.60862662 2184.84804377 90.77142455 2204.15123332 87.93429112 C2204.91966204 87.8213494 2205.68809076 87.70840769 2206.4798052 87.59204349 C2239.31519552 82.76598234 2272.15060252 77.94003463 2304.98602013 73.11415915 C2314.2729632 71.74924178 2323.55990515 70.38431686 2332.84684336 69.0193665 C2407.06296465 58.11143163 2481.27927721 47.20480452 2555.49693644 36.307338 C2556.22701121 36.20014021 2556.95708597 36.09294241 2557.70928422 35.9824962 C2587.33400964 31.63267264 2616.95881763 27.28341146 2646.5837065 22.9347012 C2651.58238416 22.20092862 2656.58105305 21.46709627 2661.57971442 20.73321271 C2672.15523223 19.18059504 2682.73078025 17.62818674 2693.30659729 16.07760847 C2698.75500742 15.27877498 2704.20337757 14.47966908 2709.6517216 13.68038487 C2710.69281049 13.52765795 2711.73389939 13.37493104 2712.80653644 13.21757603 C2726.18988114 11.2537025 2739.5711779 9.2765552 2752.95029044 7.28405738 C2757.83062461 6.55764705 2762.71129955 5.83352876 2767.59195811 5.10930157 C2771.94547191 4.46288565 2776.2982914 3.81204778 2780.65056717 3.15735078 C2783.816476 2.68233188 2786.98331968 2.21362018 2790.15001261 1.74386144 C2791.24923989 1.57680951 2792.34846716 1.40975759 2793.48100436 1.23764348 C2798.65458675 0.47597357 2803.58745527 -0.06300871 2808.81724894 0.1276505 C2797.53884059 70.77516388 2786.07061573 141.39147926 2774.56724894 212.0026505 C2774.19247143 214.30320265 2773.81769523 216.60375502 2773.44292033 218.9043076 C2772.87522636 222.38909018 2772.30753184 225.87387266 2771.73983407 229.35865462 C2769.80695013 241.22355825 2767.8741133 253.08846955 2765.94137871 264.95339751 C2765.54808332 267.36780505 2765.15478325 269.78221182 2764.76147854 272.19661784 C2755.68912139 327.89005076 2746.6406152 383.58734838 2737.59805882 439.28562665 C2737.0036643 442.94683143 2736.40925863 446.6080344 2735.8148495 450.2692368 C2732.42080021 471.17456049 2729.02684268 492.07989908 2725.63317627 512.98528492 C2720.22415237 546.30545097 2714.81315725 579.62529631 2709.40050471 612.94487309 C2705.81002296 635.04742823 2702.21982574 657.15002959 2698.62974894 679.2526505 C2698.43283048 680.46499144 2698.23591202 681.67733237 2698.03302634 682.92641091 C2688.97192806 738.71192254 2679.91568673 794.49821357 2670.87974894 850.28780675 C2670.69787933 851.41068916 2670.51600971 852.53357156 2670.3286289 853.69048071 C2668.32047166 866.08910373 2666.31247041 878.48775202 2664.30452311 890.88640904 C2663.76060913 894.24495679 2663.21669493 897.60350449 2662.67278016 900.96205211 C2662.31090519 903.1965505 2661.94903188 905.43104916 2661.58716023 907.66554809 C2650.11362002 978.51248466 2638.60510463 1049.35366006 2627.06724894 1120.1901505 C2626.88472103 1121.31078232 2626.70219311 1122.43141414 2626.51413405 1123.5860045 C2625.7776619 1128.10757848 2625.0411877 1132.62915213 2624.3047117 1137.15072548 C2622.29965883 1149.46072304 2620.29470975 1161.7707375 2618.28990519 1174.0807755 C2618.11101 1175.17922811 2617.93211482 1176.27768072 2617.74779856 1177.40941978 C2609.9836338 1225.08365667 2602.24019931 1272.761247 2594.50474894 1320.4401505 C2594.34921298 1321.39882055 2594.19367701 1322.35749061 2594.03342783 1323.34521127 C2592.45164327 1333.09481529 2590.86991826 1342.84442898 2589.28819466 1352.5940429 C2588.96772193 1354.56940998 2588.64724865 1356.54477696 2588.32677484 1358.52014387 C2587.5192679 1363.49753722 2586.7117719 1368.47493235 2585.90429652 1373.45233083 C2580.69177766 1405.58280033 2575.4748462 1437.71255185 2570.25574076 1469.84195209 C2569.26792534 1475.92307278 2568.28013806 1482.00419804 2567.2923466 1488.08532262 C2566.89438609 1490.53527318 2566.49642543 1492.98522372 2566.09846461 1495.43517423 C2565.90088289 1496.65153931 2565.70330118 1497.8679044 2565.49973214 1499.12112904 C2565.09930267 1501.58627753 2564.69887294 1504.05142598 2564.29844296 1506.51657438 C2562.88803137 1515.19943088 2561.47763347 1523.8822896 2560.06724894 1532.5651505 C2559.86736085 1533.79573343 2559.66747277 1535.02631637 2559.46152747 1536.29418969 C2550.24850841 1593.01310236 2541.03943009 1649.73264589 2531.85240519 1706.4557755 C2531.67093927 1707.57617805 2531.48947336 1708.6965806 2531.30250847 1709.85093474 C2529.30069924 1722.21050646 2527.2990573 1734.57010526 2525.29747355 1746.92971349 C2524.57490072 1751.39152616 2523.85232563 1755.85333846 2523.12974894 1760.3151505 C2522.95098216 1761.41901569 2522.77221537 1762.52288089 2522.58803141 1763.66019654 C2511.11426036 1834.50892675 2499.60524163 1905.3518512 2488.06724894 1976.1901505 C2487.33599429 1980.67979444 2486.60474338 1985.16943899 2485.87349284 1989.6590836 C2485.69311101 1990.76656906 2485.51272918 1991.87405451 2485.32688123 1993.01510012 C2483.33658747 2005.23489167 2481.34638402 2017.45469793 2479.35631144 2029.6745255 C2479.17848226 2030.76645664 2479.00065309 2031.85838778 2478.81743515 2032.98340774 C2471.66810238 2076.8833075 2464.53141823 2120.78525554 2457.40508425 2164.68889451 C2455.77152625 2174.75278187 2454.13760012 2184.81660907 2452.50249064 2194.88024449 C2450.62212736 2206.45345126 2448.74250496 2218.02677807 2446.86412394 2229.60030675 C2446.71333337 2230.52938667 2446.5625428 2231.45846658 2446.40718281 2232.41570044 C2442.42537099 2256.95200994 2438.46870461 2281.49219381 2434.54758906 2306.03827733 C2433.66576068 2311.55828894 2432.78251499 2317.07807201 2431.89827311 2322.5976975 C2431.71656882 2323.73207752 2431.71656882 2323.73207752 2431.53119373 2324.88937432 C2431.05164893 2327.88315551 2430.57209966 2330.87693597 2430.09238374 2333.87068975 C2428.7456849 2342.27580116 2427.40476016 2350.68177768 2426.07511771 2359.08960491 C2425.17882779 2364.75430697 2424.27307195 2370.41746318 2423.36387217 2376.08010602 C2423.00314411 2378.33738651 2422.64567489 2380.59519102 2422.29198802 2382.85358548 C2416.27375282 2421.25663856 2404.21442084 2454.33193838 2371.87974894 2478.6276505 C2350.00136392 2494.52643067 2325.61117187 2502.65935301 2298.58282053 2502.50024599 C2297.11298317 2502.50285084 2295.64314766 2502.50677096 2294.17331681 2502.51186495 C2290.15989795 2502.52201664 2286.14670518 2502.51368987 2282.13329806 2502.50216285 C2277.74112694 2502.4929165 2273.34898142 2502.50126059 2268.95680952 2502.50728348 C2261.23799962 2502.51546838 2253.51925627 2502.51253292 2245.80044973 2502.50230005 C2234.24534817 2502.48704148 2222.69029393 2502.48918872 2211.13518593 2502.49469977 C2191.44090067 2502.50359064 2171.7466421 2502.49828704 2152.05236018 2502.48526692 C2132.09561827 2502.47213142 2112.13889016 2502.46554931 2092.18214381 2502.46697354 C2090.92154696 2502.46705962 2089.66095011 2502.4671457 2088.36215335 2502.46723438 C2081.93433882 2502.46770351 2075.50652431 2502.46827935 2069.0787098 2502.46889289 C2055.90112307 2502.47008886 2042.72353635 2502.47028606 2029.54594958 2502.47004879 C2028.88288248 2502.47003754 2028.21981538 2502.4700263 2027.53665534 2502.47001472 C1994.86136471 2502.46937242 1962.18607923 2502.45747102 1929.51079142 2502.44484067 C1918.01034132 2502.44040305 1906.50989121 2502.43601898 1895.00944102 2502.43183231 C1894.29451855 2502.43157201 1893.57959607 2502.43131171 1892.84300928 2502.43104352 C1859.71430103 2502.41904714 1826.58559316 2502.41475636 1793.45688299 2502.41243441 C1791.28974345 2502.41228213 1789.1226039 2502.41212622 1786.95546436 2502.41196939 C1773.88744041 2502.41102709 1760.81941646 2502.41016498 1747.75139251 2502.40939547 C1715.26556258 2502.40747903 1682.77973278 2502.40460072 1650.29390299 2502.40106988 C1649.55437945 2502.40098998 1648.8148559 2502.40091008 1648.05292255 2502.40082776 C1600.16337936 2502.39564589 1552.2738379 2502.38650449 1504.38429606 2502.37404466 C1503.6198191 2502.37384579 1502.85534214 2502.37364692 1502.06769921 2502.37344203 C1478.79690304 2502.36738008 1455.52610695 2502.36102489 1432.25531087 2502.35461232 C1406.50337392 2502.34751734 1380.75143695 2502.34047239 1354.99949992 2502.33364415 C1354.22511958 2502.33343865 1353.45073925 2502.33323315 1352.65289285 2502.33302143 C1279.09071491 2502.31351664 1205.52853642 2502.30208707 1131.96635657 2502.2927428 C1128.85013971 2502.29234637 1125.73392284 2502.2919476 1122.61770597 2502.29154874 C1093.94139536 2502.2878785 1065.26508473 2502.28430301 1036.58877409 2502.28084649 C1035.82623859 2502.28075457 1035.06370309 2502.28066265 1034.27806046 2502.28056794 C1031.96930795 2502.28028965 1029.66055544 2502.2800114 1027.35180293 2502.27973315 C964.9813237 2502.2722158 902.61084458 2502.2638722 840.24036552 2502.25499324 C838.03979346 2502.25468018 835.83922139 2502.25436776 833.63864932 2502.25405552 C762.17045459 2502.2439124 690.70226032 2502.23228153 437.21568644 2502.17525792 C435.97835456 2502.17495812 434.74102269 2502.17465831 433.4661959 2502.17434942 C371.58321344 2502.159348 309.70023111 2502.14382586 247.81724894 2502.1276505 C247.74517598 2501.55087698 247.67310303 2500.97410347 247.59884604 2500.37985197 C243.23717887 2465.47509495 238.87514745 2430.57038346 234.51269971 2395.66572399 C233.97801374 2391.38761158 233.44333055 2387.10949882 232.90864909 2382.83138585 C232.80229167 2381.98039539 232.69593426 2381.12940493 232.5863539 2380.25262688 C231.11344728 2368.46751145 229.64068756 2356.68237768 228.16805457 2344.89722807 C218.58997909 2268.24606724 209.0023696 2191.59612465 195.6595299 2085.32121911 C194.39951739 2075.28769261 193.13989195 2065.25411756 191.88048136 2055.22051549 C191.78770176 2054.48135497 191.69492216 2053.74219444 191.59933106 2052.98063511 C191.15960112 2049.47735906 190.71988108 2045.97408177 190.28017163 2042.47080314 C189.79486899 2038.60430174 189.30954073 2034.73780356 188.82420981 2030.8713057 C177.60307566 1941.4731638 166.42473318 1852.06967797 154.87760746 1759.67421031 C154.25469996 1754.68994576 153.63178175 1749.70568254 153.0088596 1744.72141981 C145.14910979 1681.83224007 137.29098317 1618.94285752 129.43313539 1556.05344009 C121.70731158 1494.22067105 113.98110003 1432.38795048 106.25339752 1370.5554162 C105.75379534 1366.55788984 105.25419861 1362.5603628 104.7546069 1358.56283513 C89.40328125 1235.72433803 89.40328125 1235.72433803 74.01012003 1112.89107823 C73.92469326 1112.21035324 73.83926649 1111.52962825 73.75125102 1110.82827523 C71.13604088 1089.98916304 68.51971506 1069.15019093 65.90318644 1048.31124425 C63.19138337 1026.71349302 60.47984344 1005.1157088 57.76939738 983.51778722 C57.68324514 982.83129345 57.59709289 982.14479969 57.50832998 981.43750309 C46.76230214 895.80786303 36.06046803 810.17268898 25.35631144 724.53780675 C25.09948312 722.48315181 24.84265477 720.42849687 24.5858264 718.37384194 C18.24749106 667.66633552 11.91029343 616.95868693 5.57355529 566.25098089 C1.72132362 535.42475919 -2.13122631 504.59857728 -5.98402059 473.77242589 C-6.1165932 472.71171352 -6.2491658 471.65100114 -6.38575576 470.55814597 C-7.85258308 458.82207486 -9.31941785 447.08600469 -10.78625596 435.34993494 C-13.3965272 414.46533235 -16.00676446 393.58072552 -18.61698568 372.69611669 C-18.74366326 371.68255872 -18.87034085 370.66900076 -19.00085715 369.62472891 C-22.08647533 344.93642858 -25.1720635 320.24812449 -28.25739131 295.55978787 C-28.49318655 293.67299179 -28.72898194 291.78619574 -28.96477747 289.8993997 C-29.08083774 288.97070478 -29.19689802 288.04200987 -29.31647527 287.08517268 C-30.01036318 281.53285376 -30.70430438 275.98054149 -31.39829104 270.42823491 C-31.96373445 265.90434371 -32.52915578 261.38044976 -33.0945648 256.85655427 C-33.20506537 255.97243095 -33.31556594 255.08830762 -33.42941501 254.17739268 C-34.9395437 242.09439302 -36.44849416 230.01124676 -37.95655629 217.92798902 C-38.86899988 210.61740526 -39.78177416 203.30686279 -40.69465292 195.99633336 C-40.79206931 195.21614278 -40.88948571 194.43595221 -40.98985412 193.63211949 C-43.52872254 173.29982387 -46.0829529 152.96957773 -48.66029154 132.64211992 C-49.5343752 125.74383105 -50.40533712 118.84514718 -51.27634329 111.94646914 C-52.04636992 105.85170149 -52.82226194 99.75772289 -53.60335392 93.66436395 C-54.06225211 90.0740905 -54.51566897 86.48314112 -54.96749362 82.89197131 C-55.1709273 81.28451187 -55.3766908 79.67734502 -55.58513656 78.07052784 C-58.11065762 58.58735869 -58.244578 40.03251245 -45.94593465 23.46114659 C-34.23472285 8.89502772 -18.93692203 -0.05333762 0 0 Z " fill="#EDF7FD" transform="translate(665.1827510595322,789.8723495006561)"/>
</svg>
